<svg width="70" height="70" viewBox="0 0 70 70" fill="none" xmlns="http://www.w3.org/2000/svg">
<path d="M35 22.3126C33.5417 22.3126 32.2899 21.79 31.2448 20.7449C30.1997 19.6997 29.6771 18.448 29.6771 16.9897C29.6771 15.5313 30.1997 14.2796 31.2448 13.2345C32.2899 12.1893 33.5417 11.6667 35 11.6667C36.4583 11.6667 37.7101 12.1893 38.7552 13.2345C39.8003 14.2796 40.3229 15.5313 40.3229 16.9897C40.3229 18.448 39.8003 19.6997 38.7552 20.7449C37.7101 21.79 36.4583 22.3126 35 22.3126ZM19.0312 58.3334C17.7674 58.3334 16.7222 57.9202 15.8958 57.0938C15.0694 56.2674 14.6562 55.2223 14.6562 53.9584C14.6562 53.0834 14.875 52.2449 15.3125 51.4428C15.75 50.6407 16.3819 50.0695 17.2083 49.7293L29.75 44.7709V34.7084C26.8333 38.3056 23.8802 41.0886 20.8906 43.0574C17.901 45.0261 14.5833 46.1806 10.9375 46.5209C10.3542 46.5695 9.84375 46.3872 9.40625 45.974C8.96875 45.5608 8.75 45.0383 8.75 44.4063C8.75 43.823 8.9566 43.3126 9.36979 42.8751C9.78299 42.4376 10.3056 42.1702 10.9375 42.073C13.7569 41.7327 16.3576 40.8334 18.7396 39.3751C21.1215 37.9167 23.2604 35.948 25.1562 33.4688L29.3854 28.7292C29.8715 28.1459 30.4427 27.6598 31.099 27.2709C31.7552 26.882 32.4722 26.6876 33.25 26.6876H36.75C37.5278 26.6876 38.2569 26.882 38.9375 27.2709C39.6181 27.6598 40.2014 28.1459 40.6875 28.7292L44.9167 33.4688C46.9583 35.8508 49.1337 37.7952 51.4427 39.3022C53.7517 40.8091 56.2917 41.7327 59.0625 42.073C59.6944 42.1702 60.217 42.4376 60.6302 42.8751C61.0434 43.3126 61.25 43.823 61.25 44.4063C61.25 45.0383 61.0312 45.5608 60.5937 45.974C60.1562 46.3872 59.6458 46.5695 59.0625 46.5209C55.4167 46.1806 52.099 45.014 49.1094 43.0209C46.1198 41.0279 43.1667 38.257 40.25 34.7084V44.7709L52.7917 49.7293C53.6181 50.0695 54.25 50.6407 54.6875 51.4428C55.125 52.2449 55.3437 53.0834 55.3437 53.9584C55.3437 55.2223 54.9306 56.2674 54.1042 57.0938C53.2778 57.9202 52.2326 58.3334 50.9687 58.3334H28.875V57.5313C28.875 56.2674 29.2639 55.2466 30.0417 54.4688C30.8194 53.6911 31.8403 53.3022 33.1042 53.3022H42.8021C43.191 53.3022 43.5312 53.1563 43.8229 52.8647C44.1146 52.573 44.2604 52.2327 44.2604 51.8438C44.2604 51.4549 44.1146 51.1147 43.8229 50.823C43.5312 50.5313 43.191 50.3855 42.8021 50.3855H33.1042C30.9653 50.3855 29.2639 51.0418 28 52.3543C26.7361 53.6668 26.1042 55.3924 26.1042 57.5313V58.3334H19.0312Z" fill="#729518"/>
</svg>
