<svg width="70" height="70" viewBox="0 0 70 70" fill="none" xmlns="http://www.w3.org/2000/svg">
<g clip-path="url(#clip0_213_64)">
<path d="M2.1875 52.5C1.56771 52.5 1.04818 52.2904 0.628906 51.8711C0.209635 51.4518 0 50.9323 0 50.3125V48.6354C0 46.717 1.0026 45.1801 3.00781 44.0247C5.01302 42.8694 7.65625 42.2917 10.9375 42.2917C11.5208 42.2917 12.092 42.3099 12.651 42.3464C13.2101 42.3828 13.7569 42.4375 14.2917 42.5104C13.9028 43.3368 13.6111 44.1848 13.4167 45.0544C13.2222 45.924 13.125 46.8503 13.125 47.8333V52.5H2.1875ZM19.6875 52.5C19.0677 52.5 18.5482 52.2904 18.1289 51.8711C17.7096 51.4518 17.5 50.9323 17.5 50.3125V47.8333C17.5 44.6736 19.1163 42.1094 22.349 40.1406C25.5816 38.1719 29.7986 37.1875 35 37.1875C40.25 37.1875 44.4792 38.1719 47.6875 40.1406C50.8958 42.1094 52.5 44.6736 52.5 47.8333V50.3125C52.5 50.9323 52.2904 51.4518 51.8711 51.8711C51.4518 52.2904 50.9323 52.5 50.3125 52.5H19.6875ZM56.875 52.5V47.8333C56.875 46.8503 56.7778 45.924 56.5833 45.0544C56.3889 44.1848 56.0972 43.3302 55.7083 42.4905C56.2431 42.4066 56.7899 42.3524 57.349 42.3281C57.908 42.3038 58.4812 42.2917 59.0685 42.2917C62.3214 42.2917 64.9566 42.8694 66.974 44.0247C68.9913 45.1801 70 46.717 70 48.6354V50.3125C70 50.9323 69.7904 51.4518 69.3711 51.8711C68.9518 52.2904 68.4323 52.5 67.8125 52.5H56.875ZM35 41.5625C31.0625 41.5625 27.8906 42.158 25.4844 43.349C23.0781 44.5399 21.875 46.0347 21.875 47.8333V48.125H48.125V47.7604C48.125 46.0104 46.9219 44.5399 44.5156 43.349C42.1094 42.158 38.9375 41.5625 35 41.5625ZM10.931 40.1042C9.52561 40.1042 8.32465 39.6037 7.32812 38.6029C6.3316 37.6021 5.83333 36.399 5.83333 34.9935C5.83333 33.5881 6.33376 32.3872 7.33461 31.3906C8.33542 30.3941 9.53855 29.8958 10.944 29.8958C12.3494 29.8958 13.5503 30.3963 14.5469 31.3971C15.5434 32.3979 16.0417 33.601 16.0417 35.0065C16.0417 36.4119 15.5412 37.6128 14.5404 38.6094C13.5396 39.6059 12.3365 40.1042 10.931 40.1042ZM59.056 40.1042C57.6506 40.1042 56.4497 39.6037 55.4531 38.6029C54.4566 37.6021 53.9583 36.399 53.9583 34.9935C53.9583 33.5881 54.4588 32.3872 55.4596 31.3906C56.4604 30.3941 57.6635 29.8958 59.069 29.8958C60.4744 29.8958 61.6753 30.3963 62.6719 31.3971C63.6684 32.3979 64.1667 33.601 64.1667 35.0065C64.1667 36.4119 63.6662 37.6128 62.6654 38.6094C61.6646 39.6059 60.4615 40.1042 59.056 40.1042ZM35 35C32.5694 35 30.5035 34.1493 28.8021 32.4479C27.1007 30.7465 26.25 28.6806 26.25 26.25C26.25 23.8194 27.1007 21.7535 28.8021 20.0521C30.5035 18.3507 32.5694 17.5 35 17.5C37.4306 17.5 39.4965 18.3507 41.1979 20.0521C42.8993 21.7535 43.75 23.8194 43.75 26.25C43.75 28.6806 42.8993 30.7465 41.1979 32.4479C39.4965 34.1493 37.4306 35 35 35ZM35 21.875C33.7604 21.875 32.7214 22.2943 31.8828 23.1328C31.0443 23.9714 30.625 25.0104 30.625 26.25C30.625 27.4896 31.0443 28.5286 31.8828 29.3672C32.7214 30.2057 33.7604 30.625 35 30.625C36.2396 30.625 37.2786 30.2057 38.1172 29.3672C38.9557 28.5286 39.375 27.4896 39.375 26.25C39.375 25.0104 38.9557 23.9714 38.1172 23.1328C37.2786 22.2943 36.2396 21.875 35 21.875Z" fill="#729518"/>
</g>
<defs>
<clipPath id="clip0_213_64">
<rect width="70" height="70" fill="white"/>
</clipPath>
</defs>
</svg>
