<svg width="70" height="70" viewBox="0 0 70 70" fill="none" xmlns="http://www.w3.org/2000/svg">
<path d="M39.3748 39.3751C36.9443 39.3751 34.8783 38.5244 33.1769 36.823C31.4755 35.1216 30.6248 33.0556 30.6248 30.6251C30.6248 28.1945 31.4755 26.1286 33.1769 24.4272C34.8783 22.7258 36.9443 21.8751 39.3748 21.8751C41.8054 21.8751 43.8714 22.7258 45.5728 24.4272C47.2741 26.1286 48.1248 28.1945 48.1248 30.6251C48.1248 33.0556 47.2741 35.1216 45.5728 36.823C43.8714 38.5244 41.8054 39.3751 39.3748 39.3751ZM16.0415 49.5834C14.8384 49.5834 13.8084 49.155 12.9517 48.2983C12.0949 47.4415 11.6665 46.4115 11.6665 45.2084V16.0417C11.6665 14.8386 12.0949 13.8087 12.9517 12.9519C13.8084 12.0951 14.8384 11.6667 16.0415 11.6667H62.7082C63.9113 11.6667 64.9412 12.0951 65.798 12.9519C66.6548 13.8087 67.0832 14.8386 67.0832 16.0417V45.2084C67.0832 46.4115 66.6548 47.4415 65.798 48.2983C64.9412 49.155 63.9113 49.5834 62.7082 49.5834H16.0415ZM23.3332 45.2084H55.4165C55.4165 43.1668 56.1214 41.4411 57.5311 40.0313C58.9408 38.6216 60.6665 37.9167 62.7082 37.9167V23.3334C60.6665 23.3334 58.9408 22.6286 57.5311 21.2188C56.1214 19.8091 55.4165 18.0834 55.4165 16.0417H23.3332C23.3332 18.0834 22.6283 19.8091 21.2186 21.2188C19.8089 22.6286 18.0832 23.3334 16.0415 23.3334V37.9167C18.0832 37.9167 19.8089 38.6216 21.2186 40.0313C22.6283 41.4411 23.3332 43.1668 23.3332 45.2084ZM58.3332 58.3334H7.2915C6.08838 58.3334 5.05843 57.905 4.20166 57.0483C3.34489 56.1915 2.9165 55.1615 2.9165 53.9584V20.4167H7.2915V53.9584H58.3332V58.3334Z" fill="#729518"/>
</svg>
