<svg width="70" height="70" viewBox="0 0 70 70" fill="none" xmlns="http://www.w3.org/2000/svg">
<path d="M32.0835 11.6666H11.6668C10.1197 11.6666 8.636 12.2812 7.54204 13.3752C6.44808 14.4691 5.8335 15.9529 5.8335 17.5V58.3333C5.8335 59.8804 6.44808 61.3641 7.54204 62.4581C8.636 63.552 10.1197 64.1666 11.6668 64.1666H52.5002C54.0473 64.1666 55.531 63.552 56.625 62.4581C57.7189 61.3641 58.3335 59.8804 58.3335 58.3333V37.9166" stroke="#729518" stroke-width="4" stroke-linecap="round" stroke-linejoin="round"/>
<path d="M53.9585 7.29168C55.1188 6.13135 56.6926 5.47949 58.3335 5.47949C59.9744 5.47949 61.5482 6.13135 62.7085 7.29168C63.8688 8.452 64.5207 10.0257 64.5207 11.6667C64.5207 13.3076 63.8688 14.8814 62.7085 16.0417L35.0002 43.75L23.3335 46.6667L26.2502 35L53.9585 7.29168Z" stroke="#729518" stroke-width="4" stroke-linecap="round" stroke-linejoin="round"/>
</svg>
