<svg width="70" height="70" viewBox="0 0 70 70" fill="none" xmlns="http://www.w3.org/2000/svg">
<path d="M58.3335 20.4167H11.6668C8.44517 20.4167 5.8335 23.0284 5.8335 26.25V55.4167C5.8335 58.6383 8.44517 61.25 11.6668 61.25H58.3335C61.5552 61.25 64.1668 58.6383 64.1668 55.4167V26.25C64.1668 23.0284 61.5552 20.4167 58.3335 20.4167Z" stroke="#729518" stroke-width="4" stroke-linecap="round" stroke-linejoin="round"/>
<path d="M46.6668 61.25V14.5833C46.6668 13.0362 46.0522 11.5525 44.9583 10.4585C43.8643 9.36458 42.3806 8.75 40.8335 8.75H29.1668C27.6197 8.75 26.136 9.36458 25.042 10.4585C23.9481 11.5525 23.3335 13.0362 23.3335 14.5833V61.25" stroke="#729518" stroke-width="4" stroke-linecap="round" stroke-linejoin="round"/>
</svg>
