<svg width="70" height="70" viewBox="0 0 70 70" fill="none" xmlns="http://www.w3.org/2000/svg">
<path d="M46.6665 61.25V55.4167C46.6665 52.3225 45.4373 49.355 43.2494 47.1671C41.0615 44.9792 38.094 43.75 34.9998 43.75H14.5832C11.489 43.75 8.52152 44.9792 6.33359 47.1671C4.14567 49.355 2.9165 52.3225 2.9165 55.4167V61.25" stroke="#729518" stroke-width="4" stroke-linecap="round" stroke-linejoin="round"/>
<path d="M24.7917 32.0833C31.235 32.0833 36.4583 26.86 36.4583 20.4167C36.4583 13.9733 31.235 8.75 24.7917 8.75C18.3483 8.75 13.125 13.9733 13.125 20.4167C13.125 26.86 18.3483 32.0833 24.7917 32.0833Z" stroke="#729518" stroke-width="4" stroke-linecap="round" stroke-linejoin="round"/>
<path d="M49.5835 32.0833L55.4168 37.9167L67.0835 26.25" stroke="#729518" stroke-width="4" stroke-linecap="round" stroke-linejoin="round"/>
</svg>
