<svg width="25" height="25" viewBox="0 0 25 25" fill="none" xmlns="http://www.w3.org/2000/svg">
<path d="M12.5 0C5.59659 0 0 5.59659 0 12.5C0 19.4034 5.59659 25 12.5 25C19.4034 25 25 19.4034 25 12.5C25 5.59659 19.4034 0 12.5 0ZM12.5 2.27273C18.1483 2.27273 22.7273 6.8517 22.7273 12.5C22.7273 18.1483 18.1483 22.7273 12.5 22.7273C6.8517 22.7273 2.27273 18.1483 2.27273 12.5C2.27273 6.8517 6.8517 2.27273 12.5 2.27273ZM17.6369 7.57835C17.3483 7.54506 16.9857 7.62416 16.5805 7.77033C15.8401 8.03737 6.37712 12.0557 5.83053 12.288C5.31291 12.5085 4.82235 12.7488 4.82178 13.0959C4.82178 13.3402 4.96666 13.4782 5.36666 13.6208C5.78257 13.7697 6.83142 14.0868 7.45073 14.2578C8.04732 14.422 8.72577 14.2789 9.10645 14.0425C9.50929 13.792 14.164 10.6776 14.4975 10.4048C14.831 10.1321 15.0976 10.4822 14.8249 10.7555C14.5522 11.0288 11.3569 14.1279 10.9353 14.5574C10.4239 15.079 10.7874 15.6194 11.1306 15.8359C11.5221 16.083 14.3405 17.9727 14.765 18.2761C15.1894 18.5796 15.6191 18.7167 16.0134 18.7167C16.4077 18.7167 16.6153 18.197 16.8113 17.5948C17.0414 16.8897 18.1194 9.85913 18.2517 8.4739C18.2921 8.05402 18.1596 7.77491 17.9 7.65048C17.8214 7.61284 17.7331 7.58944 17.6369 7.57835Z" fill="white"/>
</svg>
