<svg width="25" height="25" viewBox="0 0 25 25" fill="none" xmlns="http://www.w3.org/2000/svg">
<path fill-rule="evenodd" clip-rule="evenodd" d="M21.3582 3.63335C19.0063 1.29213 15.8813 0 12.5529 0C5.69254 0 0.105792 5.55736 0.105792 12.3866C0.101719 14.5698 0.675458 16.7004 1.76595 18.5799L0 25L6.59993 23.2745C8.41472 24.2628 10.4655 24.7813 12.5488 24.7853H12.5529C19.4133 24.7853 24.9959 19.228 25 12.3947C25 9.08538 23.706 5.97456 21.3582 3.63335ZM12.5529 22.6912H12.5488C10.6933 22.6912 8.87042 22.193 7.28351 21.2573L6.90509 21.0345L2.98663 22.0553L4.03237 18.2558L3.78824 17.867C2.75064 16.2265 2.20539 14.3309 2.20539 12.3866C2.20539 6.71177 6.84813 2.09414 12.557 2.09414C15.3198 2.09414 17.9158 3.16754 19.869 5.11181C21.8221 7.06013 22.8963 9.64437 22.8963 12.3947C22.8963 18.0736 18.2536 22.6912 12.5529 22.6912ZM18.2251 14.9789C17.9158 14.825 16.3859 14.0757 16.1011 13.9744C15.8162 13.8691 15.6087 13.8205 15.4012 14.1283C15.1937 14.4402 14.5996 15.1369 14.4165 15.3435C14.2375 15.546 14.0543 15.5744 13.7451 15.4204C13.4318 15.2665 12.4308 14.9384 11.2427 13.8812C10.319 13.063 9.69238 12.0463 9.51334 11.7385C9.33024 11.4266 9.493 11.2605 9.64762 11.1066C9.79004 10.9689 9.96093 10.7461 10.1156 10.5638C10.2702 10.3856 10.3231 10.256 10.4289 10.0494C10.5306 9.84285 10.4777 9.66058 10.4004 9.50665C10.3231 9.35273 9.70053 7.82568 9.44011 7.20594C9.18783 6.60241 8.93149 6.68747 8.74025 6.67532C8.56122 6.66722 8.35369 6.66722 8.14617 6.66722C7.93865 6.66722 7.60092 6.74418 7.3161 7.05607C7.03127 7.36392 6.22967 8.11326 6.22967 9.63627C6.22967 11.1593 7.34458 12.6337 7.49921 12.8403C7.65383 13.0428 9.6924 16.1698 12.8133 17.5105C13.5539 17.8305 14.1317 18.0209 14.5833 18.1627C15.328 18.3976 16.0075 18.3652 16.5446 18.2882C17.1428 18.1991 18.3838 17.5389 18.6442 16.8139C18.9006 16.0929 18.9006 15.4731 18.8233 15.3435C18.746 15.2139 18.5384 15.1369 18.2251 14.9789Z" fill="white"/>
</svg>
